<svg xmlns="http://www.w3.org/2000/svg" viewBox="0 0 33 31" width="33" height="31" class="me-5px">
  <!-- Gray outline for file -->
  <rect x="1" y="1" width="31" height="29" rx="2" ry="2" fill="#D3D3D3"/>
  <!-- White file body -->
  <path d="M3.75 2h18c0.86 0 1.55 0.69 1.55 1.55v5.54h5.22c0.41 0 0.81 0.16 1.11 0.46l2.94 2.94c0.3 0.3 0.46 0.7 0.46 1.11V27.93c0 0.86-0.69 1.55-1.55 1.55H3.75c-0.86 0-1.55-0.69-1.55-1.55V3.55C2.2 2.69 2.89 2 3.75 2z" fill="#FFFFFF"/>
  <!-- Black pen -->
  <path d="M21.38 16.11l2.03 2.03c0.16 0.16 0.16 0.41 0 0.57l-6.78 6.78c-0.1 0.1-0.23 0.16-0.37 0.19l-2.9 0.59c-0.4 0.08-0.77-0.28-0.69-0.68l0.59-2.9c0.03-0.14 0.09-0.27 0.19-0.37l6.78-6.78c0.16-0.16 0.41-0.16 0.57 0zM26.27 13.63l-1.12 1.12c-0.16 0.16-0.41 0.16-0.57 0l-2.03-2.03c-0.16-0.16-0.16-0.41 0-0.57l1.12-1.12c0.62-0.62 1.62-0.62 2.24 0l0.36 0.36c0.62 0.62 0.62 1.62 0 2.24z" fill="#000000"/>
</svg>
