<svg width="32" height="32" viewBox="0 0 32 32" fill="none" xmlns="http://www.w3.org/2000/svg">
<path d="M23.1424 6.45122C22.0672 6.45122 21.0688 6.45122 20.0704 6.45122C19.968 6.45122 19.7888 6.45122 19.7632 6.52802C19.3536 7.39842 18.56 7.09122 17.8944 7.09122C16.6656 7.11682 15.4624 7.11682 14.2336 7.09122C14.0288 7.09122 13.696 7.11682 13.6192 7.01442C13.0304 6.11842 12.1344 6.50242 11.3408 6.45122C10.6496 6.40002 9.93278 6.45122 9.19038 6.45122C9.16478 6.75842 9.13918 6.98882 9.13918 7.24482C9.13918 13.184 9.16478 19.1232 9.11358 25.088C9.11358 25.8816 9.36958 26.0352 10.0864 26.0352C12.6208 26.0096 15.1808 26.0096 17.7408 26.112C16.2816 26.3168 15.1552 27.4688 13.568 27.3408C12.1088 27.2128 10.6496 27.3152 9.16478 27.3152C8.11518 27.3152 7.80798 26.9824 7.80798 25.9584C7.80798 19.4816 7.80798 12.9792 7.80798 6.50242C7.80798 5.47842 8.08958 5.19682 9.08798 5.17122C10.0096 5.17122 10.9312 5.17122 11.8528 5.17122C12.4416 5.17122 13.0816 5.35042 13.4912 4.65922C13.568 4.53122 13.9264 4.53122 14.1824 4.53122C15.4368 4.53122 16.6912 4.50562 17.92 4.53122C18.56 4.55682 19.3024 4.27522 19.712 5.09442C19.7632 5.19682 20.0704 5.17122 20.2496 5.17122C21.2224 5.17122 22.1952 5.17122 23.1936 5.17122C24.0896 5.19682 24.4224 5.50402 24.4224 6.40002C24.4224 8.83202 24.4224 11.2896 24.4224 13.7728C23.9872 13.696 23.6032 13.6448 23.1168 13.568C23.1424 11.2384 23.1424 8.88322 23.1424 6.45122Z" fill="#404041"/>
<path d="M13.9777 9.11365C13.9777 10.2656 13.9777 11.392 13.9777 12.5952C12.8257 12.5952 11.6993 12.5952 10.4961 12.5952C10.4961 11.4688 10.4961 10.3168 10.4961 9.11365C11.6481 9.11365 12.7745 9.11365 13.9777 9.11365ZM11.1361 9.75365C11.1361 10.5472 11.1361 11.2384 11.1361 11.9296C11.9041 11.9296 12.6209 11.9296 13.3121 11.9296C13.3121 11.1616 13.3121 10.4704 13.3121 9.75365C12.5697 9.75365 11.8785 9.75365 11.1361 9.75365Z" fill="#404041"/>
<path d="M10.4705 14.6432C11.6225 14.6432 12.7489 14.6432 13.9521 14.6432C13.9521 15.7952 13.9521 16.9216 13.9521 18.1248C12.8257 18.1248 11.6737 18.1248 10.4705 18.1248C10.4705 16.9728 10.4705 15.8208 10.4705 14.6432ZM13.2865 17.5104C13.2865 16.768 13.2865 16.0512 13.2865 15.3088C12.5441 15.3088 11.8273 15.3088 11.1361 15.3088C11.1361 16.0768 11.1361 16.7936 11.1361 17.5104C11.8785 17.5104 12.5441 17.5104 13.2865 17.5104Z" fill="#404041"/>
<path d="M10.4705 20.1472C11.6481 20.1472 12.7745 20.1472 13.9265 20.1472C13.9265 21.2992 13.9265 22.4512 13.9265 23.6544C12.8001 23.6544 11.6481 23.6544 10.4705 23.6544C10.4705 22.528 10.4705 21.376 10.4705 20.1472ZM13.3121 23.0656C13.3121 22.2976 13.3121 21.5808 13.3121 20.864C12.5441 20.864 11.8273 20.864 11.1361 20.864C11.1361 21.632 11.1361 22.3488 11.1361 23.0656C11.8785 23.0656 12.5441 23.0656 13.3121 23.0656Z" fill="#404041"/>
<path d="M21.6833 10.3424C19.4817 10.3424 17.3057 10.3424 15.0529 10.3424C14.8993 9.90719 14.9505 9.70239 15.4625 9.70239C17.4081 9.72799 19.3793 9.70239 21.3249 9.72799C21.5041 9.72799 21.6833 9.98399 21.8625 10.112C21.8369 10.1888 21.7601 10.2656 21.6833 10.3424Z" fill="#404041"/>
<path d="M15.1296 11.0337C15.5392 11.0337 15.9488 11.0337 16.3328 11.0337C17.792 11.0337 19.2512 11.0337 20.7616 11.0337C20.9408 11.4689 20.8896 11.6993 20.3776 11.6993C18.7392 11.6737 17.1264 11.6993 15.488 11.6737C15.3088 11.6737 15.104 11.4177 14.9248 11.2897C14.976 11.1873 15.0528 11.1105 15.1296 11.0337Z" fill="#404041"/>
<path d="M19.7121 14.8992C19.3281 15.0272 18.9697 15.232 18.5857 15.2576C17.4337 15.3088 16.2817 15.2832 15.0785 15.2832C14.8993 14.848 14.8993 14.592 15.4625 14.592C16.8705 14.592 18.2529 14.592 19.6609 14.592C19.6865 14.6944 19.7121 14.7968 19.7121 14.8992Z" fill="#404041"/>
<path d="M18.5857 15.9489C18.3809 16.5377 16.6913 16.8449 15.3089 16.5377C15.1553 16.5121 15.0529 16.2305 14.7969 15.9489C16.2305 15.9489 17.4081 15.9489 18.5857 15.9489Z" fill="#404041"/>
<path d="M18.4576 22.7329C17.3568 22.7329 16.2304 22.7329 15.104 22.7329C14.9248 22.3233 14.976 22.0929 15.488 22.0929C16.3584 22.1185 17.2288 22.0673 18.0992 22.1185C18.304 22.1185 18.4832 22.3745 18.6624 22.5025C18.5856 22.5793 18.5088 22.6561 18.4576 22.7329Z" fill="#404041"/>
<path d="M15.1297 20.7873C16.0513 20.7873 16.9729 20.7617 17.8689 20.8129C18.0993 20.8129 18.3297 21.0689 18.5601 21.2225C18.5345 21.2993 18.4833 21.3761 18.4577 21.4529C17.4337 21.4529 16.4097 21.4785 15.3857 21.4273C15.2321 21.4273 15.0785 21.1713 14.8993 21.0177C14.9761 20.9409 15.0529 20.8641 15.1297 20.7873Z" fill="#404041"/>
<path d="M18.2017 17.408C18.0225 17.5616 17.8433 17.8176 17.6385 17.8432C16.7937 17.8944 15.9745 17.8688 15.1041 17.8688C14.8993 17.4336 14.9249 17.2032 15.4881 17.2032C16.3585 17.2288 17.2033 17.2032 18.0737 17.2032C18.0993 17.28 18.1505 17.3568 18.2017 17.408Z" fill="#404041"/>
<path d="M26.6752 22.4768C29.1072 23.5264 30.8224 25.216 31.4368 27.776C31.6928 28.9024 31.6672 30.1056 31.7184 31.2832C31.744 31.8464 31.3344 32 30.7968 32C27.3664 32 23.9616 32 20.5312 32C19.328 32 18.1248 32 16.9472 32C16.4864 32 16.128 31.8464 16.1024 31.36C16 29.4656 16.128 27.5968 17.1264 25.9072C18.0736 24.32 19.4048 23.1936 21.1968 22.4768C19.8656 21.4016 19.1744 20.0448 19.3024 18.3552C19.4048 17.1264 19.9424 16.0768 20.8896 15.232C22.7072 13.6192 25.5744 13.7472 27.2896 15.5136C28.7232 17.024 29.4144 20.096 26.6752 22.4768ZM30.336 30.6432C30.5408 27.7504 29.5168 25.4976 27.008 24.1408C24.6016 22.8352 22.1952 23.0144 19.9936 24.6528C18.0224 26.1376 17.2288 28.1856 17.4592 30.6432C21.7856 30.6432 26.0352 30.6432 30.336 30.6432ZM23.8592 15.4624C22.0672 15.488 20.5824 16.9728 20.5824 18.7136C20.5824 20.5568 22.0672 21.9904 23.9616 21.9904C25.7536 21.9904 27.2128 20.5056 27.1872 18.7136C27.1616 16.8448 25.7024 15.4368 23.8592 15.4624Z" fill="#404041"/>
<path d="M30.336 30.6432C26.0352 30.6432 21.7856 30.6432 17.4592 30.6432C17.2288 28.16 17.9968 26.112 19.9936 24.6528C22.1952 23.0144 24.6016 22.8352 27.008 24.1408C29.5168 25.5232 30.5408 27.776 30.336 30.6432Z" fill="#F49221"/>
<path d="M23.8592 15.4624C25.7024 15.4368 27.1616 16.8704 27.1872 18.7136C27.2128 20.5056 25.7536 21.9904 23.9616 21.9904C22.0928 21.9904 20.608 20.5568 20.5824 18.7136C20.5824 16.9472 22.0928 15.4624 23.8592 15.4624Z" fill="#F49221"/>
<path d="M7.16803 16.8192V16.5376C5.24803 16.5376 3.32803 16.5376 1.40803 16.5376C1.17763 14.0544 1.94563 12.0064 3.94243 10.5472C4.99203 9.77925 6.06723 9.31845 7.19363 9.21605V7.80805C5.68323 7.50085 4.55683 6.19525 4.55683 4.60805C4.55683 2.86725 6.04163 1.38245 7.83363 1.35685C9.67683 1.33125 11.136 2.76485 11.1616 4.60805C11.1616 4.60805 11.1616 4.60805 11.1616 4.63365H12.5184C12.5184 3.35365 11.9808 2.20165 11.2384 1.43365C9.52323 -0.332752 6.65603 -0.460752 4.83843 1.15205C3.89123 1.97125 3.35363 3.02085 3.25123 4.27525C3.12323 5.96485 3.84003 7.29605 5.14563 8.39685C3.32803 9.08805 1.99683 10.1888 1.04963 11.776C0.0512321 13.4656 -0.0767678 15.3344 0.0256322 17.2288C0.0512322 17.6896 0.409632 17.8688 0.870432 17.8688C2.07363 17.8688 3.27683 17.8688 4.45443 17.8688C5.52963 17.8688 6.09283 17.8688 7.16803 17.8688C7.16803 17.4336 7.16803 17.2544 7.16803 16.8192Z" fill="#404041"/>
<path d="M7.16798 9.19043C6.06718 9.31843 4.96638 9.75363 3.91678 10.5216C1.94558 12.0064 1.17758 14.0544 1.40798 16.5376C3.32798 16.5376 5.24798 16.5376 7.16798 16.5376V9.19043Z" fill="#007647"/>
<path d="M7.16802 5.9137C7.16802 5.1969 7.75681 4.6081 8.47361 4.6081H11.1104C11.1104 4.6081 11.1104 4.6081 11.1104 4.5825C11.0848 2.7393 9.65122 1.3313 7.78242 1.3313C5.99042 1.3569 4.50562 2.8417 4.50562 4.5825C4.50562 6.1697 5.63202 7.4753 7.14242 7.7825V5.9137H7.16802Z" fill="#007647"/>
</svg>
