<svg width="18" height="24" viewBox="0 0 18 24" fill="none" xmlns="http://www.w3.org/2000/svg">
<path d="M14.3413 11.1834C14.4564 11.0643 14.52 10.9047 14.5186 10.7391C14.5171 10.5735 14.4507 10.4151 14.3336 10.298C14.2165 10.1809 14.0581 10.1145 13.8925 10.1131C13.7269 10.1116 13.5674 10.1753 13.4483 10.2903L8.84215 14.8964L6.76236 12.8166C6.64324 12.7016 6.48371 12.6379 6.31811 12.6394C6.15251 12.6408 5.9941 12.7072 5.877 12.8243C5.7599 12.9414 5.69348 13.0998 5.69204 13.2654C5.6906 13.431 5.75426 13.5906 5.86931 13.7097L8.84215 16.6825L14.3413 11.1834Z" fill="#007647"/>
<path fill-rule="evenodd" clip-rule="evenodd" d="M17.6843 6.31579V19.5789C17.6843 20.0815 17.4846 20.5634 17.1293 20.9187C16.774 21.2741 16.292 21.4737 15.7895 21.4737H4.4211C3.91859 21.4737 3.43665 21.2741 3.08132 20.9187C2.72599 20.5634 2.52637 20.0815 2.52637 19.5789V1.89474C2.52637 1.39222 2.72599 0.910288 3.08132 0.554956C3.43665 0.199624 3.91859 0 4.4211 0H11.3685L17.6843 6.31579ZM11.3685 6.94737C11.201 6.94737 11.0403 6.88083 10.9219 6.76238C10.8034 6.64394 10.7369 6.48329 10.7369 6.31579V1.26316H4.4211C4.2536 1.26316 4.09295 1.3297 3.97451 1.44814C3.85607 1.56659 3.78953 1.72723 3.78953 1.89474V19.5789C3.78953 19.7465 3.85607 19.9071 3.97451 20.0255C4.09295 20.144 4.2536 20.2105 4.4211 20.2105H15.7895C15.957 20.2105 16.1177 20.144 16.2361 20.0255C16.3546 19.9071 16.4211 19.7465 16.4211 19.5789V6.94737H11.3685ZM12.0001 2.41768L15.2666 5.68421H12.0001V2.41768Z" fill="#414042"/>
<path d="M1.26316 3.78955V20.8422C1.26316 21.3447 1.46278 21.8266 1.81811 22.182C2.17345 22.5373 2.65538 22.7369 3.15789 22.7369H15.1579V24.0001H3.15789C2.32037 24.0001 1.51715 23.6674 0.924926 23.0751C0.332706 22.4829 0 21.6797 0 20.8422V3.78955H1.26316Z" fill="#414042"/>
</svg>
