<?xml version="1.0" encoding="UTF-8" standalone="no"?>
<svg
   xmlns:dc="http://purl.org/dc/elements/1.1/"
   xmlns:cc="http://creativecommons.org/ns#"
   xmlns:rdf="http://www.w3.org/1999/02/22-rdf-syntax-ns#"
   xmlns:svg="http://www.w3.org/2000/svg"
   xmlns="http://www.w3.org/2000/svg"
   viewBox="0 0 4800 4800"
   height="4800"
   width="4800"
   xml:space="preserve"
   id="svg2"
   version="1.1"><metadata
     id="metadata8"><rdf:RDF><cc:Work
         rdf:about=""><dc:format>image/svg+xml</dc:format><dc:type
           rdf:resource="http://purl.org/dc/dcmitype/StillImage" /></cc:Work></rdf:RDF></metadata><defs
     id="defs6"><clipPath
       id="clipPath18"
       clipPathUnits="userSpaceOnUse"><path
         id="path16"
         d="M 0,3600 H 3600 V 0 H 0 Z" /></clipPath></defs><g
     transform="matrix(1.3333333,0,0,-1.3333333,0,4800)"
     id="g10"><g
       id="g12"><g
         clip-path="url(#clipPath18)"
         id="g14"><g
           transform="translate(1744.7837,1565.8887)"
           id="g20"><path
             id="path22"
             style="fill:#217444;fill-opacity:1;fill-rule:nonzero;stroke:none"
             d="m 0,0 h -963.752 l -454.736,600.658 960.365,-183.252 c 0,0 213.793,1092.699 716.037,1332.513 C 257.914,1749.919 -74.653,1449.038 0,0" /></g><g
           transform="translate(1971.0322,1433.542)"
           id="g24"><path
             id="path26"
             style="fill:#f68712;fill-opacity:1;fill-rule:nonzero;stroke:none"
             d="m 0,0 c 0,0 -58.84,-18.104 -63.355,31.664 0,0 -185.513,1370.995 203.616,1954.681 0,0 -95.021,-832.544 162.879,-1402.656 0,0 565.595,45.256 1013.537,-171.931 0,0 -746.565,-9.051 -1316.677,-411.758" /></g><g
           transform="translate(1256.1216,2424.4536)"
           id="g28"><path
             id="path30"
             style="fill:#217444;fill-opacity:1;fill-rule:nonzero;stroke:none"
             d="m 0,0 c 0,-139.931 -113.446,-253.375 -253.384,-253.375 -139.938,0 -253.378,113.444 -253.378,253.375 0,139.927 113.44,253.374 253.378,253.374 C -113.446,253.374 0,139.927 0,0" /></g><g
           transform="translate(2789.9854,2383.7305)"
           id="g32"><path
             id="path34"
             style="fill:#f68712;fill-opacity:1;fill-rule:nonzero;stroke:none"
             d="m 0,0 c 0,-139.932 -113.433,-253.375 -253.384,-253.375 -139.938,0 -253.385,113.443 -253.385,253.375 0,139.931 113.447,253.374 253.385,253.374 C -113.433,253.374 0,139.931 0,0" /></g><g
           transform="translate(820.5312,1213.5137)"
           id="g36"><path
             id="path38"
             style="fill:#231f20;fill-opacity:1;fill-rule:nonzero;stroke:none"
             d="m 0,0 c 0,17.433 -14.791,29.147 -44.344,35.158 -9.716,2 -24.492,3.286 -44.33,3.86 -9.325,0 -16.412,-0.155 -21.264,-0.434 -15.391,-1.426 -25.82,-5.074 -31.286,-10.932 -5.466,-5.858 -8.192,-12.931 -8.192,-21.221 v -91.318 l 30.364,6.866 c 26.729,7.423 46.567,13.994 59.526,19.71 C -19.852,-40.877 0,-21.445 0,0 m 39.745,-212.201 c 0,20.943 -8.724,40.318 -26.171,58.142 -11.771,12.163 -28.211,23.333 -49.306,33.525 -15.015,7.353 -23.752,11.03 -26.185,11.03 l -90.085,-21.642 v -138.763 -6.362 c 0,-4.528 0.502,-7.925 1.523,-10.191 1.007,-2.264 2.74,-4.235 5.173,-5.927 6.081,-4.529 14.609,-6.794 25.569,-6.794 h 45.644 c 26.785,0 51.138,6.64 73.058,19.949 27.178,16.399 40.78,38.739 40.78,67.033 m 196.612,-21.123 c -6.095,-33.16 -31.049,-59.932 -74.876,-80.327 -40.989,-18.986 -88.87,-28.478 -143.657,-28.478 h -411.482 v 16.999 c 15.825,0 28.813,3.678 38.962,11.03 4.459,3.383 8.01,7.983 10.653,13.786 2.627,5.787 3.956,10.666 3.956,14.622 v 307.92 c 0,7.059 -0.21,11.575 -0.615,13.56 -1.622,6.779 -5.173,12.512 -10.653,17.181 -5.48,4.67 -11.156,8.122 -17.041,10.387 -5.886,2.265 -12.89,3.397 -20.998,3.397 V 83.752 H 47.042 c 30.84,-1.705 53.977,-4.249 69.396,-7.646 46.259,-10.779 69.396,-30.336 69.396,-58.66 0,-22.954 -19.278,-44.777 -57.82,-65.453 C 89.052,-64.168 69.368,-72.374 68.963,-72.653 L 34.879,-83.712 c 7.704,0 25.151,-3.411 52.341,-10.205 40.584,-10.205 73.045,-23.234 97.398,-39.102 35.299,-22.955 52.955,-50.438 52.955,-82.453 v -6.375 c 0,-1.985 -0.209,-4.11 -0.615,-6.374 -0.405,-2.265 -0.601,-3.97 -0.601,-5.103" /></g><g
           transform="translate(1731.293,1280.6582)"
           id="g40"><path
             id="path42"
             style="fill:#231f20;fill-opacity:1;fill-rule:nonzero;stroke:none"
             d="m 0,0 c -12.484,-1.146 -23.15,-5.676 -32,-13.616 -7.242,-6.249 -12.078,-14.623 -14.483,-25.122 -2.419,-10.513 -3.621,-20.732 -3.621,-30.658 -0.223,-2.852 -0.335,-4.697 -0.335,-5.536 0,-0.573 0.112,-1.146 0.335,-1.705 v -206.497 c 0,-38.891 -21.319,-71.24 -63.933,-97.075 -40.178,-24.409 -91.12,-38.599 -152.814,-42.568 -8.122,-0.281 -15.727,-0.645 -22.829,-1.077 -7.102,-0.406 -15.531,-0.629 -25.261,-0.629 -74.289,0 -135.171,10.219 -182.647,30.629 -52.774,22.676 -79.153,54.717 -79.153,96.125 v 255.231 c 0,8.22 -0.615,14.245 -1.832,18.076 -1.216,3.83 -4.46,7.87 -9.73,12.12 -10.149,7.941 -21.92,11.91 -35.313,11.91 v 16.999 h 296.149 V -0.392 c -7.675,0 -14.749,-1.076 -21.208,-3.2 -6.458,-2.125 -13.127,-5.467 -19.991,-9.996 -6.864,-4.529 -11.715,-9.423 -14.539,-14.665 -2.823,-5.257 -4.235,-11.701 -4.235,-19.362 V -299.49 c 0,-20.425 13.993,-36.879 41.981,-49.349 24.744,-11.072 54.354,-16.594 88.842,-16.594 33.663,0 63.37,7.298 89.135,21.907 25.751,14.608 38.641,32.839 38.641,54.674 v 201.674 22.549 c 0,13.897 -1.231,25.094 -3.678,33.608 -2.446,8.5 -7.744,15.307 -15.908,20.424 -11.031,6.794 -23.892,10.205 -38.571,10.205 V 16.607 L 0,16.607 Z" /></g><g
           transform="translate(2176.2148,1205.5439)"
           id="g44"><path
             id="path46"
             style="fill:#231f20;fill-opacity:1;fill-rule:nonzero;stroke:none"
             d="m 0,0 c 0,14.792 -8.723,26.465 -26.17,34.992 -15.014,7.396 -34.098,11.1 -57.22,11.1 -15.825,0 -30.643,-1.999 -44.442,-5.97 -7.717,-2.291 -13.085,-6.066 -16.133,-11.323 -3.047,-5.257 -4.556,-11.449 -4.556,-18.551 V -96.865 l 21.304,4.696 c 30.84,7.382 58.017,18.203 81.559,32.434 C -15.224,-41.254 0,-21.332 0,0 M 283.386,-334.159 H -23.263 v 15.685 c 10.906,0.867 20.817,3.146 29.708,6.836 4.852,1.971 7.284,5.788 7.284,11.45 0,7.632 -4.474,18.397 -13.393,32.266 -6.096,9.338 -22.928,31.273 -50.524,65.803 -8.107,9.897 -18.355,20.802 -30.728,32.683 -12.385,11.884 -24.659,23.627 -36.822,35.23 l -32.266,-10.61 v -119.709 c 0,-9.06 0.909,-16.496 2.755,-22.298 1.845,-5.802 5.214,-10.821 10.135,-15.056 6.543,-5.663 12.876,-9.478 19.012,-11.464 2.852,-0.853 10.01,-2.125 21.474,-3.817 v -16.999 h -290.781 v 16.999 c 6.892,0 12.471,0.63 16.734,1.901 4.263,1.273 9.436,3.608 15.531,7.004 8.109,4.516 13.393,9.744 15.826,15.687 2.432,5.94 3.648,13.714 3.648,23.331 l 1.217,277.794 c 0,8.764 -0.211,15.559 -0.615,20.368 -1.621,14.972 -4.767,25.29 -9.437,30.951 -4.669,5.648 -10.038,9.534 -16.119,11.659 -6.096,2.125 -13.393,3.188 -21.906,3.188 V 91.722 H 43.562 c 47.475,0 83.682,-5.102 108.651,-15.307 24.953,-10.206 39.255,-24.926 42.918,-44.19 0.81,-5.117 1.217,-8.794 1.217,-11.059 0,-20.97 -11.577,-40.667 -34.7,-59.078 -16.634,-13.043 -38.345,-25.08 -65.131,-36.124 -20.298,-8.221 -32.056,-12.33 -35.298,-12.33 21.5,-18.986 40.274,-36.628 56.296,-52.914 16.021,-16.301 32.768,-34.643 50.215,-55.038 9.338,-11.059 24.954,-35.566 46.875,-73.535 16.23,-27.778 29.624,-43.226 40.177,-46.329 7.704,-2.264 17.238,-4.11 28.604,-5.522 z" /></g><g
           transform="translate(2996.2021,1087.2617)"
           id="g48"><path
             id="path50"
             style="fill:#231f20;fill-opacity:1;fill-rule:nonzero;stroke:none"
             d="m 0,0 c 0,39.814 -11.981,75.966 -35.915,108.455 -27.596,37.271 -62.699,55.919 -105.295,55.919 -35.314,0 -65.846,-17.027 -91.61,-51.054 -25.779,-34.027 -38.654,-71.241 -38.654,-111.615 0,-41.24 12.371,-79.237 37.13,-113.964 27.988,-39.255 62.49,-58.883 103.479,-58.883 47.07,0 81.767,18.775 104.08,56.339 C -8.934,-84.872 0,-46.609 0,0 m 201.491,-7.2 c 0,-65.65 -28.812,-118.13 -86.437,-157.455 -60.477,-41.31 -143.657,-61.958 -249.569,-61.958 -101.046,0 -182.827,21.137 -245.317,63.44 -62.489,42.303 -93.735,95.427 -93.735,159.37 0,64.223 32.657,117.836 97.999,160.838 63.706,41.869 141.42,62.812 233.141,62.812 97.789,0 177.321,-17.406 238.609,-52.201 C 166.388,127.748 201.491,69.465 201.491,-7.2" /></g><g
           transform="translate(688.3311,539.7559)"
           id="g52"><path
             id="path54"
             style="fill:#7f878d;fill-opacity:1;fill-rule:nonzero;stroke:none"
             d="m 0,0 c 24.828,0 43.715,-1.245 56.66,-3.719 20.145,-3.802 36.697,-9.996 49.643,-18.565 17.614,-11.631 26.421,-25.625 26.421,-42.009 0,-25.92 -17.391,-51.53 -52.158,-76.862 -35.397,-25.919 -82.356,-44.679 -140.861,-56.297 -31.385,-6.277 -60.533,-9.422 -87.458,-9.422 -25.233,0 -46.748,4.948 -64.545,14.847 -16.328,8.932 -24.492,18.928 -24.492,29.971 0,6.46 4.235,18.357 12.707,35.677 3.593,7.801 13.113,26.156 28.575,55.095 12.065,22.634 28.687,56.31 49.866,101.047 10.569,21.682 17.768,35.285 21.585,40.821 2.544,3.984 5.089,6.737 7.633,8.275 1.902,1.133 5.913,3.035 12.065,5.704 8.248,3.999 18.523,10.947 30.797,20.844 6.137,4.754 11.855,7.13 17.153,7.13 10.374,0 15.56,-3.9 15.56,-11.687 0,-5.131 -2.642,-12.736 -7.926,-22.801 -8.053,-15.588 -26.451,-47.602 -55.221,-96.056 -25.471,-45.308 -39.591,-70.528 -42.345,-75.658 -7.213,-13.52 -10.821,-23.893 -10.821,-31.133 0,-10.848 7.102,-20.845 21.334,-29.973 16.343,-10.289 37.368,-15.42 63.063,-15.42 37.774,0 69.619,10.079 95.538,30.267 17.825,14.076 26.744,30.252 26.744,48.537 0,32.154 -22.9,48.244 -68.698,48.244 -8.919,0 -16.873,-0.083 -23.863,-0.223 -16.119,-0.447 -25.765,-0.671 -28.938,-0.671 -11.464,0 -17.182,3.999 -17.182,12.023 0,2.852 2.531,7.157 7.605,12.889 0.42,0.378 1.469,1.999 3.16,4.865 1.468,3.048 4.53,5.816 9.185,8.304 25.946,13.547 46.217,26.143 60.784,37.788 28.491,22.325 42.737,41.226 42.737,56.688 0,12.595 -9.856,22.046 -29.554,28.351 -9.744,3.047 -24.045,5.619 -42.89,7.717 -18.859,2.097 -37.074,3.159 -54.661,3.159 -27.96,0 -59.163,-2.433 -93.581,-7.269 -34.418,-4.837 -64.657,-11.143 -90.701,-18.887 -24.367,-7.171 -41.003,-13.071 -49.894,-17.712 -2.125,-0.979 -4.977,-3.984 -8.584,-9.018 -1.691,-2.32 -5.187,-3.48 -10.485,-3.48 -5.298,0 -10.387,0.866 -15.252,2.599 -8.262,3.076 -12.386,7.675 -12.386,13.827 0,2.684 1.37,5.285 4.138,7.787 0.419,0.377 4.334,2.586 11.771,6.626 23.319,13.644 40.164,22.773 50.565,27.386 51.11,22.675 105.604,39.591 163.494,50.748 40.933,7.871 80.692,11.812 119.29,11.812 45.155,0 79.294,-7.367 102.416,-22.088 23.962,-15.294 35.943,-33.272 35.943,-53.92 C 113.936,96.46 99.075,73.995 69.382,48.761 53.669,35.563 30.546,19.306 0,0" /></g><g
           transform="translate(1065.0176,522.5605)"
           id="g56"><path
             id="path58"
             style="fill:#7f878d;fill-opacity:1;fill-rule:nonzero;stroke:none"
             d="m 0,0 c -4.222,0 -9.912,-1.622 -17.083,-4.865 -7.172,-3.244 -13.813,-7.144 -19.922,-11.701 -30.364,-23.068 -55.136,-45.253 -74.316,-66.586 -10.751,-11.995 -18.761,-24.004 -24.032,-35.999 -3.159,-7.437 -4.739,-13.434 -4.739,-18.005 0,-3.999 1.887,-5.997 5.69,-5.997 8.849,0 24.241,8.191 46.175,24.575 20.663,15.421 40.584,34.95 59.764,58.576 11.17,13.519 21.501,28.757 30.993,45.715 2.74,4.948 4.11,8.373 4.11,10.288 C 6.64,-1.343 4.418,0 0,0 m -48.482,-116.466 c -17.349,-20.705 -37.018,-36.655 -59.009,-47.853 -10.792,-5.508 -27.191,-10.932 -49.181,-16.245 -24.968,-6.067 -41.045,-9.115 -48.23,-9.115 -9.311,0 -16.301,4.669 -20.942,13.981 -4.865,10.261 -7.298,19.585 -7.298,27.972 0,6.081 1.706,11.883 5.089,17.406 l 12.078,19.11 c 11.436,19.013 20.551,32.14 27.345,39.381 28.603,30.434 63.58,56.591 104.905,78.469 35.173,18.831 64.112,28.253 86.787,28.253 19.292,0 36.878,-4.572 52.773,-13.7 6.571,-3.802 9.856,-8.752 9.856,-14.846 0,-7.228 -3.816,-20.551 -11.449,-39.954 -20.998,-53.096 -31.496,-94.756 -31.496,-125.009 0,-5.144 2.138,-12.274 6.443,-21.403 1.063,-2.474 1.609,-4.753 1.609,-6.85 0,-3.998 -3.104,-8.179 -9.311,-12.554 -4.278,-3.047 -8.248,-4.571 -11.883,-4.571 -2.992,0 -7.703,0.936 -14.12,2.796 -3.858,1.119 -6.654,1.677 -8.359,1.677 -1.063,0 -3.523,-0.391 -7.382,-1.188 -2.153,-0.391 -4.292,-0.602 -6.416,-0.602 -6.431,0 -11.031,2.573 -13.813,7.717 -4.278,8.389 -7.06,22.565 -8.346,42.555 z" /></g><g
           transform="translate(1235.0264,435.2705)"
           id="g60"><path
             id="path62"
             style="fill:#7f878d;fill-opacity:1;fill-rule:nonzero;stroke:none"
             d="m 0,0 56.283,64.376 c 9.114,9.535 18.649,18.972 28.631,28.324 2.963,2.669 8.359,6.29 16.216,10.876 7.437,6.278 12.75,10.177 15.937,11.716 8.29,3.997 15.952,5.997 22.969,5.997 19.334,0 29.008,-13.184 29.008,-39.521 0,-15.266 -2.432,-32.168 -7.283,-50.677 -1.259,-4.781 -6.221,-22.438 -14.861,-52.985 -2.545,-8.974 -3.802,-15.837 -3.802,-20.605 0,-3.062 1.887,-6.599 5.662,-10.597 3.969,-3.83 5.969,-7.353 5.969,-10.596 0,-4.978 -8.388,-12.135 -25.164,-21.474 -19.739,-10.89 -34.712,-16.328 -44.903,-16.328 -7.214,0 -13.686,5.256 -19.418,15.755 -2.978,5.159 -4.46,14.708 -4.46,28.659 0,6.109 1.37,12.987 4.124,20.634 l 26.366,71.074 c 3.523,10.288 5.298,16.007 5.298,17.139 0,2.796 -0.964,4.208 -2.865,4.208 -5.103,0 -32.587,-31.903 -82.467,-95.678 -12.945,-16.706 -21.012,-26.772 -24.199,-30.183 -5.103,-5.885 -8.29,-9.688 -9.548,-11.393 -2.559,-3.411 -4.264,-5.117 -5.103,-5.117 -0.853,-0.587 -3.076,-1.161 -6.682,-1.719 -4.894,-0.95 -11.366,-3.607 -19.433,-7.969 -7.004,-3.606 -11.463,-5.41 -13.364,-5.41 -2.978,0 -7.326,3.131 -13.057,9.381 -5.663,5.341 -8.486,8.863 -8.486,10.583 0,6.486 3.397,20.214 10.192,41.198 24.828,74.749 39.576,117.179 44.245,127.3 3.383,6.85 6.361,11.995 8.919,15.433 1.482,1.902 5.298,3.915 11.45,6.012 2.334,0.755 5.522,2.195 9.562,4.292 10.597,5.718 17.6,8.584 21.012,8.584 4.026,0 9.003,-1.244 14.944,-3.719 5.941,-2.489 10.303,-5.159 13.072,-8.01 2.32,-2.292 3.495,-5.34 3.495,-9.158 0,-4.388 -2.336,-10.205 -6.99,-17.446 C 32.797,69.982 26.24,58.352 21.584,48.063 Z" /></g><g
           transform="translate(1639.6729,527.0332)"
           id="g64"><path
             id="path66"
             style="fill:#7f878d;fill-opacity:1;fill-rule:nonzero;stroke:none"
             d="m 0,0 c -5.956,0 -15.042,-3.019 -27.247,-9.03 -12.219,-6.012 -23.207,-12.932 -32.979,-20.76 -9.561,-7.451 -19.166,-16.664 -28.826,-27.652 -9.674,-10.989 -16.622,-20.481 -20.872,-28.492 -2.558,-4.585 -5.746,-12.567 -9.562,-23.92 -3.83,-11.365 -5.732,-18.382 -5.732,-21.052 l 3.817,-6.878 2.88,1.146 c 12.945,4.585 24.996,11.03 36.151,19.333 11.156,8.305 23.948,20.285 38.403,35.957 15.714,16.804 26.324,30.168 31.861,40.094 8.694,15.462 13.797,24.731 15.279,27.791 1.482,3.048 2.237,5.914 2.237,8.598 C 5.41,-1.621 3.606,0 0,0 m -40.192,-120.938 c -24.605,-19.49 -44.638,-33.384 -60.1,-41.704 -21.207,-11.155 -43.784,-18.717 -67.732,-22.688 -9.758,-1.706 -16.119,-2.559 -19.082,-2.559 -5.089,0 -11.24,3.048 -18.44,9.143 -2.124,1.706 -4.459,3.621 -7.004,5.719 -2.544,1.901 -4.026,3.34 -4.445,4.291 -0.853,1.328 -1.273,3.999 -1.273,7.996 0,48.021 27.345,91.568 82.048,130.642 58.073,41.535 99.942,62.308 125.609,62.308 3.802,0 15.043,-1.649 33.702,-4.949 15.741,0 25.317,-0.154 28.728,-0.433 3.411,-0.28 7.242,-1.091 11.492,-2.432 5.536,-2.097 8.304,-5.243 8.304,-9.437 0,-2.489 -2.027,-9.171 -6.053,-20.047 -3.188,-9.926 -13.281,-47.225 -30.281,-111.924 -14.665,-55.345 -29.634,-99.898 -44.927,-133.674 -17.433,-38.542 -28.911,-61.917 -34.419,-70.123 -3.621,-5.536 -12.442,-10.877 -26.464,-16.035 -19.334,-6.864 -33.467,-10.302 -42.386,-10.302 -5.313,0 -18.231,2.543 -38.725,7.59 -20.508,5.076 -32.139,8.654 -34.893,10.75 -6.165,4.027 -13.603,14.344 -22.312,30.952 -8.081,15.098 -12.107,25.416 -12.107,30.951 0,6.697 7.647,22.549 22.955,47.574 4.669,7.843 10.625,11.757 17.852,11.757 5.522,0 9.661,-0.853 12.429,-2.559 3.187,-1.901 6.263,-7.129 9.254,-15.684 9.773,-27.36 20.607,-49.587 32.518,-66.699 8.276,-11.966 15.713,-17.95 22.311,-17.95 5.522,0 9.45,4.376 11.799,13.128 l 35.062,126.168 c 4.25,15.405 9.772,32.14 16.58,50.23" /></g><g
           transform="translate(1830.2695,657.1025)"
           id="g68"><path
             id="path70"
             style="fill:#7f878d;fill-opacity:1;fill-rule:nonzero;stroke:none"
             d="m 0,0 63.595,25.178 c 6.78,2.669 11.967,4.011 15.573,4.011 2.755,0 5.145,-1.104 7.158,-3.298 2.013,-2.197 3.02,-4.81 3.02,-7.858 0,-7.437 -4.208,-20.508 -12.623,-39.185 -2.112,-4.572 -21.992,-45.854 -59.654,-123.833 -23.989,-49.196 -35.983,-82.649 -35.983,-100.375 0,-5.34 1.677,-9.689 5.047,-13.015 3.368,-3.343 7.689,-5.006 12.959,-5.006 15.378,0 35.803,10.709 61.302,32.14 3.774,3.02 7.465,4.543 11.057,4.543 2.727,0 5.2,-1.286 7.409,-3.858 2.209,-2.572 3.328,-5.48 3.328,-8.723 0,-6.487 -5.088,-14.791 -15.252,-24.884 -20.774,-20.216 -46.93,-36.99 -78.497,-50.328 -15.042,-6.487 -26.492,-9.73 -34.32,-9.73 -4.026,0 -8.151,2.013 -12.387,6.011 -4.878,4.391 -11.771,8.206 -20.662,11.45 -16.314,5.718 -24.045,11.156 -23.192,16.3 l 2.684,13.449 c -1.202,7.06 -1.79,11.17 -1.79,12.317 0,16.02 7.997,41.477 24.018,76.399 l 47.07,102.165 c 7.046,15.252 12.371,29.077 16.007,41.492 2.768,8.961 4.165,13.923 4.165,14.874 l -1.789,20.901 c 0,2.655 3.915,5.619 11.757,8.863" /></g><g
           transform="translate(2137.0996,522.5605)"
           id="g72"><path
             id="path74"
             style="fill:#7f878d;fill-opacity:1;fill-rule:nonzero;stroke:none"
             d="m 0,0 c -4.223,0 -9.912,-1.622 -17.084,-4.865 -7.171,-3.244 -13.812,-7.144 -19.921,-11.701 -30.364,-23.068 -55.137,-45.253 -74.316,-66.586 -10.751,-11.995 -18.761,-24.004 -24.032,-35.999 -3.159,-7.437 -4.74,-13.434 -4.74,-18.005 0,-3.999 1.889,-5.997 5.691,-5.997 8.849,0 24.241,8.191 46.174,24.575 20.664,15.421 40.584,34.95 59.765,58.576 11.17,13.519 21.5,28.757 30.993,45.715 2.741,4.948 4.111,8.373 4.111,10.288 C 6.641,-1.343 4.418,0 0,0 m -48.482,-116.466 c -17.35,-20.705 -37.018,-36.655 -59.009,-47.853 -10.792,-5.508 -27.191,-10.932 -49.182,-16.245 -24.968,-6.067 -41.044,-9.115 -48.229,-9.115 -9.311,0 -16.301,4.669 -20.942,13.981 -4.866,10.261 -7.299,19.585 -7.299,27.972 0,6.081 1.706,11.883 5.09,17.406 l 12.078,19.11 c 11.436,19.013 20.551,32.14 27.345,39.381 28.603,30.434 63.58,56.591 104.904,78.469 35.174,18.831 64.113,28.253 86.788,28.253 19.292,0 36.878,-4.572 52.774,-13.7 6.57,-3.802 9.854,-8.752 9.854,-14.846 0,-7.228 -3.815,-20.551 -11.448,-39.954 -20.998,-53.096 -31.497,-94.756 -31.497,-125.009 0,-5.144 2.14,-12.274 6.445,-21.403 1.063,-2.474 1.607,-4.753 1.607,-6.85 0,-3.998 -3.103,-8.179 -9.311,-12.554 -4.277,-3.047 -8.248,-4.571 -11.882,-4.571 -2.992,0 -7.704,0.936 -14.12,2.796 -3.859,1.119 -6.654,1.677 -8.359,1.677 -1.063,0 -3.523,-0.391 -7.382,-1.188 -2.152,-0.391 -4.292,-0.602 -6.417,-0.602 -6.43,0 -11.029,2.573 -13.811,7.717 -4.279,8.389 -7.061,22.565 -8.347,42.555 z" /></g><g
           transform="translate(2388.5264,526.9082)"
           id="g76"><path
             id="path78"
             style="fill:#7f878d;fill-opacity:1;fill-rule:nonzero;stroke:none"
             d="m 0,0 c -30.686,-21.67 -54.744,-46.833 -72.192,-75.52 -11.561,-19.389 -17.334,-36.11 -17.334,-50.159 0,-4.753 0.825,-8.752 2.503,-11.98 2.083,-4.181 7.198,-6.263 15.349,-6.263 19.208,0 36.32,11.016 51.347,33.062 C -3.83,-86.549 4.418,-62.043 4.418,-37.34 4.418,-31.637 2.937,-19.195 0,0 m -7.954,29.428 c -12.512,32.419 -26.715,58.351 -42.596,77.81 -18.664,22.508 -43.352,37.662 -74.08,45.491 -10.597,2.656 -15.894,6.571 -15.894,11.73 0,4.753 5.185,9.24 15.559,13.434 24.129,9.73 41.365,14.594 51.739,14.594 11.002,0 24.227,-3.537 39.689,-10.582 15.448,-7.046 29.204,-15.909 41.268,-26.575 38.949,-33.748 58.421,-79.015 58.421,-135.801 0,-40.401 -10.568,-79.097 -31.706,-116.074 -7.199,-12.777 -14.706,-22.395 -22.52,-28.868 -16.917,-13.729 -29.4,-24.297 -37.425,-31.735 -6.346,-6.094 -13.112,-10.862 -20.299,-14.288 -32.14,-15.07 -55.5,-22.59 -70.081,-22.59 -7.829,0 -17.866,2.964 -30.126,8.863 -8.039,3.802 -13.644,9.981 -16.804,18.565 -4.236,10.666 -6.347,19.432 -6.347,26.295 0,7.424 2.474,19.852 7.452,37.285 4.976,17.419 9.465,29.289 13.49,35.579 11.631,18.481 30.574,36.767 56.8,54.856 16.706,11.813 33.942,21.334 51.726,28.575 z" /></g><g
           transform="translate(2627.2607,518.9814)"
           id="g80"><path
             id="path82"
             style="fill:#7f878d;fill-opacity:1;fill-rule:nonzero;stroke:none"
             d="m 0,0 c -10.263,0 -21.362,-5.257 -33.329,-15.77 -14.106,-12.427 -25.96,-29.245 -35.578,-50.466 -4.488,-10.136 -6.724,-16.916 -6.724,-20.356 0,-6.696 2.446,-10.037 7.367,-10.037 2.558,0 7.786,2.628 15.7,7.885 7.913,5.257 15.81,11.422 23.723,18.495 26.059,23.122 39.102,42.723 39.102,58.786 C 10.261,-3.83 6.836,0 0,0 m -73.38,-132.333 c 15.881,-15.573 33.76,-23.347 53.668,-23.347 9.311,0 23.179,3.509 41.604,10.527 1.901,0.727 4.125,1.104 6.668,1.104 3.593,0 6.655,-1.062 9.2,-3.173 2.544,-2.125 3.815,-4.641 3.815,-7.52 0,-7.131 -5.619,-13.296 -16.859,-18.496 -8.277,-4.054 -20.41,-7.941 -36.417,-11.701 -16.021,-3.748 -28.268,-5.634 -36.739,-5.634 -8.277,0 -15.393,0.671 -21.32,2.013 -1.482,0.392 -8.485,2.488 -20.983,6.305 -7.648,2.306 -16.343,4.306 -26.087,6.039 -20.368,3.635 -33.411,8.22 -39.13,13.77 -8.485,8.22 -12.721,21.627 -12.721,40.192 0,17.404 4.236,33.384 12.721,47.937 14.637,24.87 28.212,43.044 40.738,54.535 9.953,9.185 23.528,19.083 40.709,29.708 17.182,10.625 32.992,18.998 47.419,25.121 18.454,7.647 33.832,11.478 46.134,11.478 13.994,0 23.962,-4.977 29.917,-14.903 4.026,-6.318 6.039,-13.952 6.039,-22.927 0,-17.978 -3.495,-30.868 -10.485,-38.696 -3.816,-4.585 -6.458,-9.66 -7.94,-15.195 -3.187,-11.283 -8.052,-20.831 -14.623,-28.66 -27.96,-31.915 -59.735,-51.404 -95.328,-58.477" /></g><g
           transform="translate(2834.0645,522.8955)"
           id="g84"><path
             id="path86"
             style="fill:#7f878d;fill-opacity:1;fill-rule:nonzero;stroke:none"
             d="m 0,0 c -2.363,-6.29 -3.537,-11.436 -3.537,-15.434 0,-4.194 1.369,-8.094 4.124,-11.714 1.691,-2.293 6.137,-7.621 13.351,-15.994 8.038,-9.142 14.707,-20.578 20.019,-34.292 4.222,-11.436 6.346,-20.103 6.346,-26.003 0,-7.241 -2.013,-15.293 -6.039,-24.143 -4.026,-8.863 -8.906,-16.049 -14.622,-21.57 -15.058,-14.484 -34.657,-25.542 -58.814,-33.147 -16.329,-5.144 -32.642,-7.717 -48.957,-7.717 -20.355,0 -37.214,4.18 -50.552,12.527 -5.926,3.788 -8.905,8.905 -8.905,15.363 0,9.856 4.656,19.711 13.981,29.582 14.623,15.363 26.169,23.053 34.642,23.053 6.779,0 13.56,-4.041 20.34,-12.093 1.271,-1.538 4.977,-7.299 11.128,-17.279 5.089,-8.458 11.225,-12.681 18.439,-12.681 5.285,0 7.941,3.146 7.941,9.466 0,7.842 -1.483,18.368 -4.432,31.565 -2.125,8.975 -5.928,17.392 -11.407,25.247 -0.854,1.343 -8.136,10.612 -21.864,27.834 -5.286,6.684 -7.928,13.757 -7.928,21.222 0,16.44 17.839,36.823 53.543,61.12 26.813,18.356 46.567,27.541 59.247,27.541 6.962,0 14.259,-2.112 21.864,-6.306 5.914,-3.634 8.444,-7.94 7.606,-12.903 L 52.34,15.195 C 50.215,2 48.104,-5.731 45.994,-8.024 c -3.594,-3.83 -8.99,-5.732 -16.176,-5.732 -6.765,0 -13.113,1.524 -19.026,4.585 C 8.876,-8.221 5.283,-5.158 0,0" /></g><g
           transform="translate(3012.167,473.7432)"
           id="g88"><path
             id="path90"
             style="fill:#7f878d;fill-opacity:1;fill-rule:nonzero;stroke:none"
             d="m 0,0 c 53.753,52.815 89.974,79.237 108.679,79.237 6.794,0 13.071,-2.767 18.817,-8.304 2.754,-2.866 4.139,-7.731 4.139,-14.61 0,-7.828 -0.77,-15.362 -2.281,-22.619 L 109.183,-69.383 c -1.734,-8.779 -2.601,-15.755 -2.601,-20.899 0,-5.732 2.209,-9.647 6.627,-11.743 1.049,-0.574 4.32,-1.427 9.8,-2.573 3.354,-0.587 5.047,-2.488 5.047,-5.732 0,-5.158 -0.742,-9.548 -2.209,-13.168 -0.854,-2.293 -3.174,-4.11 -6.962,-5.439 -15.406,-4.977 -27.009,-9.925 -34.811,-14.888 -6.975,-4.585 -11.827,-6.878 -14.567,-6.878 -2.529,0 -6.695,1.062 -12.497,3.145 -5.802,2.112 -10.177,4.208 -13.127,6.305 -9.507,6.683 -14.245,16.244 -14.245,28.659 0,8.388 1.914,19.557 5.746,33.51 L 59.681,6.584 c 0.838,3.047 1.271,5.158 1.271,6.305 0,2.474 -1.384,3.718 -4.139,3.718 -2.991,0 -10.959,-6.108 -23.918,-18.313 -17.224,-16.413 -33.692,-34.167 -49.419,-53.235 -12.973,-16.021 -21.794,-28.896 -26.463,-38.627 -4.475,-9.926 -7.55,-15.839 -9.256,-17.74 -2.125,-2.293 -5.745,-4.11 -10.834,-5.438 -8.499,-2.098 -15.098,-4.487 -19.768,-7.158 -9.142,-5.34 -15.306,-8.01 -18.495,-8.01 -4.473,0 -7.982,2.181 -10.526,6.57 -1.706,2.67 -2.545,6.012 -2.545,10.01 0,5.899 2.755,14.958 8.275,27.162 12.75,28.785 20.189,47.28 22.313,55.473 l 9.549,33.733 c 1.691,6.863 6.471,19.069 14.342,36.599 L 3.454,176.886 c 17.837,39.451 29.51,60.994 35.047,64.615 2.544,1.706 14.119,7.619 34.726,17.726 14.216,7.046 23.877,10.583 28.979,10.583 3.188,0 6.054,-1.286 8.598,-3.858 2.545,-2.573 3.83,-5.48 3.83,-8.723 0,-6.292 -2.334,-14.484 -7.003,-24.578 z" /></g><path
           id="path92"
           style="fill:#231f20;fill-opacity:1;fill-rule:nonzero;stroke:none"
           d="M 1772.8,3208.435 H 437.894 v 57.261 H 1772.8 Z" /><path
           id="path94"
           style="fill:#231f20;fill-opacity:1;fill-rule:nonzero;stroke:none"
           d="m 437.894,3265.696 h 57.261 V 2238.57 h -57.261 z" /><path
           id="path96"
           style="fill:#231f20;fill-opacity:1;fill-rule:nonzero;stroke:none"
           d="m 3152.65,3265.696 h 57.262 V 2038.155 h -57.262 z" /><path
           id="path98"
           style="fill:#231f20;fill-opacity:1;fill-rule:nonzero;stroke:none"
           d="m 2193.521,3265.696 h 1016.391 v -57.261 H 2193.521 Z" /></g></g></g></svg>