<svg xmlns="http://www.w3.org/2000/svg" viewBox="0 0 33 31" width="6" height="7" class="me-5px">
  <!-- Deep Orange arrow -->
  <path d="M13.94 0h5.15c0.86 0 1.55 0.69 1.55 1.55V12.9h5.64c1.35 0 2.04 1.63 1.08 2.59L17.3 26.56c-0.6 0.6-1.57 0.6-2.17 0L4.67 15.49C3.71 14.53 4.4 12.9 5.75 12.9h5.64V1.55C11.4 0.69 12.08 0 13.94 0z" fill="#FF8C00"/>
  <!-- Green horizontal line -->
  <path d="M31.5 28.13c0.86 0 1.55 0.69 1.55 1.55s-0.69 1.55-1.55 1.55H1.55C0.69 31.23 0 30.54 0 29.68s0.69-1.55 1.55-1.55H31.5z" fill="#008000"/>
</svg>
