<svg width="27" height="24" viewBox="0 0 27 24" fill="none" xmlns="http://www.w3.org/2000/svg">
<path d="M22.8527 17.4693C22.7955 17.4986 22.7384 17.5279 22.7098 17.5572C22.3956 17.2057 22.11 16.8543 21.7672 16.4736C21.91 16.2979 22.0528 16.1222 22.2242 15.9465C22.2814 15.8586 22.3099 15.8 22.2814 15.7122C21.71 13.955 21.1387 12.1979 20.5674 10.4407C20.5388 10.3236 20.4817 10.2943 20.3674 10.2943C19.3105 10.2943 18.2536 10.2943 17.1966 10.2943C17.1395 10.2943 17.0538 10.2943 16.9681 10.2943C16.9967 10.2357 16.9967 10.2064 17.0252 10.1771C17.2538 9.67929 17.5109 9.21071 17.7394 8.71285C17.768 8.625 17.8251 8.5957 17.9393 8.5957C19.1391 8.5957 20.3674 8.5957 21.5672 8.5957C21.6815 8.5957 21.7386 8.65427 21.7672 8.74213C23.3954 13.7793 25.0522 18.8165 26.6805 23.8536C26.6805 23.8829 26.7091 23.9415 26.7091 24.0001C17.7965 24.0001 8.91254 24.0001 0 24.0001C0.0285658 23.9415 0.0285519 23.8829 0.0571177 23.8244C1.68537 18.8165 3.31363 13.8086 4.94189 8.80071C4.99902 8.65428 5.02758 8.62498 5.17041 8.62498C6.37018 8.62498 7.54138 8.62498 8.74114 8.62498C8.85541 8.62498 8.9411 8.65427 8.96967 8.77141C9.19819 9.23999 9.42673 9.70857 9.65525 10.1771C9.68382 10.2357 9.68382 10.265 9.74095 10.3529C9.65525 10.3529 9.59811 10.3529 9.54098 10.3529C8.48405 10.3529 7.39854 10.3529 6.3416 10.3529C6.22734 10.3529 6.17022 10.3821 6.14166 10.4993C5.62747 12.11 5.08472 13.7207 4.57054 15.3315C4.54197 15.4486 4.54197 15.5365 4.65623 15.595C4.77049 15.6829 4.88475 15.7707 5.02758 15.8586C4.74192 16.3272 4.45627 16.825 4.14205 17.2936C4.08492 17.2643 4.02777 17.235 3.97064 17.1765C3.42789 18.875 2.85658 20.5736 2.31383 22.3015C9.68382 22.3015 17.0252 22.3015 24.3952 22.3015C23.881 20.6615 23.3669 19.08 22.8527 17.4693Z" fill="#414042"/>
<path d="M13.3402 13.6914C13.1688 13.3399 12.9974 13.0178 12.826 12.6956C11.7691 10.5578 10.7122 8.41991 9.62665 6.28204C8.34119 3.70489 9.79806 0.629886 12.5689 0.0734547C14.7685 -0.365833 17.0252 1.2156 17.4251 3.47061C17.5965 4.46633 17.4823 5.37418 17.0252 6.28204C15.8255 8.71277 14.6257 11.1142 13.3973 13.5449C13.4259 13.6035 13.3973 13.6328 13.3402 13.6914ZM15.854 4.29061C15.854 2.8556 14.7399 1.71346 13.3402 1.71346C11.9691 1.71346 10.8264 2.88489 10.8264 4.29061C10.8264 5.69633 11.9405 6.83848 13.3117 6.83848C14.7399 6.86777 15.854 5.72561 15.854 4.29061Z" fill="#007647"/>
<path d="M7.85556 16.6786C7.85556 17.235 7.85556 17.7915 7.85556 18.3479C7.19855 18.3479 6.5701 18.26 5.94165 18.055C6.08448 17.4986 6.25587 16.9715 6.3987 16.4443C6.88432 16.5322 7.36994 16.5908 7.85556 16.6786Z" fill="#414042"/>
<path d="M13.883 14.3943C14.1401 14.9214 14.3972 15.4193 14.6543 15.9172C14.1687 16.21 13.683 16.5029 13.1974 16.7958C12.9403 16.2979 12.6547 15.8 12.369 15.3022C12.8546 14.98 13.3688 14.6871 13.883 14.3943Z" fill="#414042"/>
<path d="M10.9122 16.0342C11.1121 16.532 11.3121 17.0592 11.5121 17.5863C10.9408 17.8499 10.3409 18.0256 9.74099 18.1428C9.62672 17.5863 9.51246 17.0299 9.39819 16.5027C9.91238 16.3563 10.398 16.1806 10.9122 16.0342Z" fill="#414042"/>
<path d="M16.0826 15.2728C15.9112 14.7457 15.7683 14.2185 15.5969 13.6621C16.1968 13.4571 16.8253 13.3399 17.4537 13.2814C17.5109 13.8378 17.5394 14.4235 17.5966 14.9507C17.0824 15.0678 16.5967 15.1557 16.0826 15.2728Z" fill="#414042"/>
<path d="M19.3963 13.3984C20.0533 13.5156 20.6532 13.7499 21.2245 14.0427C20.9674 14.5406 20.7103 15.0384 20.4818 15.5363C19.9961 15.3606 19.5391 15.2142 19.082 15.0384C19.1963 14.5113 19.282 13.9549 19.3963 13.3984Z" fill="#414042"/>
</svg>
