<svg width="17" height="16" viewBox="0 0 17 16" fill="none" xmlns="http://www.w3.org/2000/svg">
<g clip-path="url(#clip0_1004_4288)">
<path d="M4.61337 11.9998C4.75111 11.6095 5.00653 11.2715 5.34444 11.0324C5.68235 10.7933 6.0861 10.6649 6.50004 10.6649C6.91398 10.6649 7.31773 10.7933 7.65564 11.0324C7.99355 11.2715 8.24897 11.6095 8.38671 11.9998H15.1667V13.3332H8.38671C8.24897 13.7235 7.99355 14.0616 7.65564 14.3007C7.31773 14.5397 6.91398 14.6681 6.50004 14.6681C6.0861 14.6681 5.68235 14.5397 5.34444 14.3007C5.00653 14.0616 4.75111 13.7235 4.61337 13.3332H1.83337V11.9998H4.61337ZM8.61337 7.33318C8.75111 6.94282 9.00653 6.6048 9.34444 6.3657C9.68235 6.12661 10.0861 5.99821 10.5 5.99821C10.914 5.99821 11.3177 6.12661 11.6556 6.3657C11.9935 6.6048 12.249 6.94282 12.3867 7.33318H15.1667V8.66651H12.3867C12.249 9.05687 11.9935 9.39489 11.6556 9.63398C11.3177 9.87308 10.914 10.0015 10.5 10.0015C10.0861 10.0015 9.68235 9.87308 9.34444 9.63398C9.00653 9.39489 8.75111 9.05687 8.61337 8.66651H1.83337V7.33318H8.61337ZM4.61337 2.66651C4.75111 2.27615 5.00653 1.93813 5.34444 1.69904C5.68235 1.45994 6.0861 1.33154 6.50004 1.33154C6.91398 1.33154 7.31773 1.45994 7.65564 1.69904C7.99355 1.93813 8.24897 2.27615 8.38671 2.66651H15.1667V3.99984H8.38671C8.24897 4.3902 7.99355 4.72822 7.65564 4.96732C7.31773 5.20641 6.91398 5.33481 6.50004 5.33481C6.0861 5.33481 5.68235 5.20641 5.34444 4.96732C5.00653 4.72822 4.75111 4.3902 4.61337 3.99984H1.83337V2.66651H4.61337ZM6.50004 3.99984C6.67685 3.99984 6.84642 3.92961 6.97145 3.80458C7.09647 3.67956 7.16671 3.50999 7.16671 3.33318C7.16671 3.15637 7.09647 2.9868 6.97145 2.86177C6.84642 2.73675 6.67685 2.66651 6.50004 2.66651C6.32323 2.66651 6.15366 2.73675 6.02864 2.86177C5.90361 2.9868 5.83337 3.15637 5.83337 3.33318C5.83337 3.50999 5.90361 3.67956 6.02864 3.80458C6.15366 3.92961 6.32323 3.99984 6.50004 3.99984ZM10.5 8.66651C10.6769 8.66651 10.8464 8.59627 10.9714 8.47125C11.0965 8.34622 11.1667 8.17665 11.1667 7.99984C11.1667 7.82303 11.0965 7.65346 10.9714 7.52844C10.8464 7.40342 10.6769 7.33318 10.5 7.33318C10.3232 7.33318 10.1537 7.40342 10.0286 7.52844C9.90361 7.65346 9.83337 7.82303 9.83337 7.99984C9.83337 8.17665 9.90361 8.34622 10.0286 8.47125C10.1537 8.59627 10.3232 8.66651 10.5 8.66651ZM6.50004 13.3332C6.67685 13.3332 6.84642 13.2629 6.97145 13.1379C7.09647 13.0129 7.16671 12.8433 7.16671 12.6665C7.16671 12.4897 7.09647 12.3201 6.97145 12.1951C6.84642 12.0701 6.67685 11.9998 6.50004 11.9998C6.32323 11.9998 6.15366 12.0701 6.02864 12.1951C5.90361 12.3201 5.83337 12.4897 5.83337 12.6665C5.83337 12.8433 5.90361 13.0129 6.02864 13.1379C6.15366 13.2629 6.32323 13.3332 6.50004 13.3332Z" fill="#616161"/>
</g>
<defs>
<clipPath id="clip0_1004_4288">
<rect width="16" height="16" fill="white" transform="translate(0.5)"/>
</clipPath>
</defs>
</svg>
