<svg width="24" height="24" viewBox="0 0 24 24" fill="none" xmlns="http://www.w3.org/2000/svg">
<path d="M22.2925 12.3056C21.7059 12.0722 21.1685 11.8818 20.6618 11.6361C20.5945 11.5762 20.5411 11.5023 20.5056 11.4195C20.47 11.3367 20.4531 11.2471 20.456 11.157C20.456 8.46372 20.456 5.77044 20.456 3.07716C20.4794 2.80374 20.4137 2.5301 20.2687 2.29712C20.0419 2.0587 19.7365 1.91035 19.4088 1.87946C13.9086 1.84261 8.41766 1.86104 2.92361 1.86411C2.23263 1.86411 1.86718 2.23263 1.86411 2.92668C1.86411 8.09827 1.86411 13.2699 1.86411 18.4415C1.86411 19.1846 2.2142 19.5132 2.99424 19.5163C5.6261 19.5163 8.2549 19.5163 10.8868 19.5163C11.2645 19.5163 11.4303 19.5992 11.4795 20.0015C11.566 20.4626 11.684 20.9171 11.8326 21.362C11.6637 21.362 11.5071 21.3958 11.3505 21.3958C8.56507 21.3958 5.77965 21.3958 2.99424 21.3958C1.15163 21.3958 0.00307102 20.2165 0 18.38V2.99731C0 1.17313 1.17927 0 3.01267 0H19.3106C21.1532 0 22.3109 1.17313 22.314 3.00653C22.314 5.96084 22.314 8.91619 22.314 11.8726C22.314 12.0046 22.3017 12.1397 22.2925 12.3056Z" fill="#404041"/>
<path d="M13.2054 18.5911C13.2066 17.5221 13.5249 16.4776 14.12 15.5897C14.7152 14.7018 15.5604 14.0104 16.5486 13.603C17.5369 13.1956 18.6238 13.0906 19.6717 13.3012C20.7197 13.5118 21.6816 14.0286 22.4357 14.7862C23.1898 15.5438 23.7022 16.508 23.9081 17.5569C24.1139 18.6059 24.004 19.6923 23.5921 20.6786C23.1803 21.665 22.485 22.507 21.5944 23.0981C20.7038 23.6892 19.6578 24.0028 18.5889 23.9991C17.8798 23.9991 17.1778 23.8591 16.523 23.587C15.8682 23.3149 15.2737 22.9162 14.7735 22.4137C14.2732 21.9111 13.8772 21.3148 13.6081 20.6588C13.339 20.0028 13.2021 19.3001 13.2054 18.5911ZM17.6676 19.5124C17.6676 20.0651 17.6676 20.5534 17.6676 21.0479C17.6676 21.1646 17.7935 21.355 17.8703 21.355C18.4015 21.3826 18.9359 21.3703 19.5317 21.3703V19.5154C20.0599 19.5154 20.5236 19.5154 20.9812 19.5154C21.2883 19.5154 21.405 19.4356 21.3866 19.1254C21.3635 18.7716 21.3635 18.4167 21.3866 18.0628C21.4081 17.7342 21.2791 17.6329 20.9628 17.6483C20.4929 17.6698 20.023 17.6483 19.501 17.6483V15.8056H17.6584V17.6483H15.8157C15.8157 18.1734 15.8342 18.6371 15.8157 19.0947C15.8004 19.4018 15.9232 19.497 16.215 19.4878C16.6633 19.5032 17.1363 19.5154 17.6553 19.5154L17.6676 19.5124Z" fill="#007647"/>
<g style="mix-blend-mode:multiply">
<path d="M13.4818 7.49635C12.1428 7.49635 10.8069 7.49635 9.46799 7.49635C8.70023 7.49635 8.38392 7.17082 8.3747 6.4C8.35628 4.86449 8.49754 4.71094 10.0392 4.71094H17.3759C18.2972 4.71094 18.5828 5.01804 18.5858 5.93934C18.5858 6.07754 18.5858 6.21574 18.5858 6.35393C18.5858 7.18925 18.2787 7.50249 17.4496 7.50556C16.126 7.49942 14.8023 7.49635 13.4818 7.49635Z" fill="#F49221"/>
</g>
<g style="mix-blend-mode:multiply">
<path d="M12.1797 12.1543C11.2891 12.1543 10.3985 12.1543 9.5048 12.1543C8.70941 12.1543 8.38388 11.8195 8.37467 11.0334C8.35932 9.49785 8.50058 9.35352 10.0514 9.35352H17.342C18.3893 9.35352 18.9543 10.195 18.5704 11.1961C18.5369 11.241 18.494 11.278 18.4447 11.3045C18.3953 11.3311 18.3408 11.3465 18.2848 11.3497C17.2994 11.399 16.3337 11.6444 15.4442 12.0714C15.2739 12.1368 15.0921 12.1671 14.9098 12.1604C13.9946 12.1604 13.0887 12.1543 12.1797 12.1543Z" fill="#F49221"/>
</g>
<g style="mix-blend-mode:multiply">
<path d="M12.7662 14.0276C12.3762 14.8967 12.0077 15.732 11.6207 16.5612C11.5867 16.6199 11.5401 16.6704 11.4844 16.7091C11.4287 16.7479 11.3652 16.7739 11.2983 16.7854C10.6226 16.8069 9.94703 16.7854 9.27447 16.7854H9.22841C8.98051 16.7635 8.7514 16.6442 8.59135 16.4537C8.4313 16.2631 8.35337 16.0168 8.37466 15.7689C8.34395 14.5405 8.51593 14.0614 9.12092 14.0368C10.3555 13.9908 11.5931 14.0276 12.7662 14.0276Z" fill="#F49221"/>
</g>
<path d="M4.41919 7.48462C5.18242 7.48462 5.80115 6.8659 5.80115 6.10266C5.80115 5.33943 5.18242 4.7207 4.41919 4.7207C3.65595 4.7207 3.03723 5.33943 3.03723 6.10266C3.03723 6.8659 3.65595 7.48462 4.41919 7.48462Z" fill="#007647"/>
<path d="M4.41919 12.0784C5.18242 12.0784 5.80115 11.4596 5.80115 10.6964C5.80115 9.93318 5.18242 9.31445 4.41919 9.31445C3.65595 9.31445 3.03723 9.93318 3.03723 10.6964C3.03723 11.4596 3.65595 12.0784 4.41919 12.0784Z" fill="#007647"/>
<path d="M4.41919 16.7893C5.18242 16.7893 5.80115 16.1706 5.80115 15.4073C5.80115 14.6441 5.18242 14.0254 4.41919 14.0254C3.65595 14.0254 3.03723 14.6441 3.03723 15.4073C3.03723 16.1706 3.65595 16.7893 4.41919 16.7893Z" fill="#007647"/>
</svg>
