<svg width="24" height="24" viewBox="0 0 24 24" fill="none" xmlns="http://www.w3.org/2000/svg">
<g clip-path="url(#clip0_1663_5211)">
<path d="M0.17424 14.0466L0.451765 14.1558C3.80962 15.5139 7.16846 16.8691 10.5283 18.2213C10.6027 18.2383 10.6676 18.2834 10.7095 18.3473C10.7513 18.4111 10.7668 18.4887 10.7527 18.5637C10.72 19.2665 10.8263 19.9688 11.0656 20.6304C11.2389 21.1358 11.5887 21.5616 12.0509 21.8295C12.513 22.0975 13.0564 22.1896 13.5811 22.0889C14.6764 21.9324 15.3525 21.2445 15.8987 20.3647C16.5366 19.2617 17.0693 18.1013 17.49 16.8986C18.9426 13.0989 20.2417 9.24007 21.5082 5.38425C21.6204 5.05063 21.7297 4.71405 21.8478 4.35386L9.90828 1.99195L9.79018 2.28719C8.45767 5.95996 7.12024 9.63865 5.77788 13.3232C5.735 13.5071 5.641 13.675 5.50674 13.8077C5.37248 13.9404 5.20344 14.0324 5.01912 14.0731C4.26921 14.206 3.75254 13.5269 4.02121 12.7652C4.28988 12.0035 4.61169 11.1857 4.88626 10.4033L8.39075 0.763753C8.62399 0.120131 8.99894 -0.0953934 9.66618 0.0374642L23.073 2.69462C23.8111 2.84224 24.1122 3.34119 23.8849 4.04681C22.2936 8.97141 20.6668 13.8753 18.7743 18.6907C18.3618 19.7884 17.8218 20.8338 17.1653 21.8055C16.7276 22.4585 16.1402 22.9975 15.452 23.3775C14.7639 23.7575 13.9949 23.9676 13.2091 23.9902C12.2488 24.0342 11.2925 23.8405 10.4249 23.4263C7.9036 22.2867 5.40588 21.1323 2.86387 20.0045C2.1161 19.7075 1.45296 19.2309 0.933005 18.6169C0.237455 17.7155 -0.0953818 16.5864 4.93266e-05 15.4519C0.0295733 14.9943 0.11224 14.5367 0.17424 14.0466Z" fill="#404041"/>
<g style="mix-blend-mode:multiply">
<path d="M15.6063 15.8101C15.609 15.9584 15.5754 16.1051 15.5084 16.2374C15.4414 16.3697 15.3431 16.4836 15.222 16.5692C15.1009 16.6548 14.9607 16.7094 14.8136 16.7284C14.6665 16.7474 14.517 16.7301 14.3782 16.6781C13.0466 16.2589 11.721 15.819 10.3954 15.3732C10.1842 15.3121 10.002 15.177 9.88224 14.9927C9.76243 14.8084 9.71297 14.5871 9.7429 14.3693C9.76541 14.162 9.86037 13.9692 10.0111 13.825C10.1617 13.6808 10.3585 13.5944 10.5666 13.581C10.7225 13.5701 10.8791 13.5901 11.0272 13.6401C12.3203 14.0564 13.6105 14.4815 14.9007 14.9067C15.1029 14.9559 15.2825 15.0718 15.4106 15.2358C15.5386 15.3997 15.6076 15.6021 15.6063 15.8101Z" fill="#F49221"/>
</g>
<g style="mix-blend-mode:multiply">
<path d="M17.1239 12.0559C17.1267 12.1891 17.0994 12.3211 17.0441 12.4423C16.9888 12.5634 16.9069 12.6705 16.8044 12.7556C16.702 12.8408 16.5817 12.9017 16.4525 12.9339C16.3233 12.9661 16.1884 12.9687 16.0581 12.9416C15.6683 12.856 15.2934 12.7143 14.9125 12.5903C13.9422 12.2734 12.9718 11.9555 12.0015 11.6367C11.411 11.4389 11.1335 10.9488 11.3224 10.3967C11.3908 10.2144 11.5156 10.0588 11.6787 9.95259C11.8417 9.84635 12.0345 9.79505 12.2288 9.80618C12.3464 9.81769 12.4622 9.84245 12.5742 9.87999C13.8497 10.2933 15.129 10.7106 16.4123 11.1318C16.6188 11.1811 16.8021 11.2998 16.9316 11.4679C17.0611 11.6361 17.129 11.8437 17.1239 12.0559Z" fill="#F49221"/>
</g>
<g style="mix-blend-mode:multiply">
<path d="M18.7743 8.02425C18.7769 8.17154 18.744 8.31731 18.6785 8.44923C18.6129 8.58116 18.5166 8.69537 18.3976 8.78222C18.2786 8.86908 18.1404 8.92603 17.9948 8.94826C17.8492 8.97049 17.7003 8.95736 17.5608 8.90997C16.2382 8.56158 14.9096 8.18368 13.581 7.81168C13.3773 7.75806 13.1975 7.63748 13.0706 7.46934C12.9437 7.30119 12.877 7.09525 12.8813 6.88463C12.8904 6.6748 12.9718 6.47459 13.1117 6.31797C13.2516 6.16136 13.4414 6.05801 13.6489 6.02548C13.8272 6.00342 14.0082 6.0185 14.1804 6.06976C15.441 6.40634 16.6958 6.75177 17.9535 7.0972C18.4938 7.24482 18.7684 7.56072 18.7743 8.02425Z" fill="#F49221"/>
</g>
<g style="mix-blend-mode:multiply">
<path d="M9.60125 10.8374C9.469 10.8471 9.33615 10.8296 9.21096 10.7858C9.08577 10.7421 8.97089 10.6731 8.87346 10.5831C8.77602 10.4932 8.6981 10.3842 8.64453 10.2629C8.59095 10.1415 8.56287 10.0105 8.56201 9.87791C8.56816 9.64136 8.66626 9.41653 8.8355 9.25115C9.00474 9.08577 9.23177 8.99288 9.4684 8.99219C10.0943 8.99219 10.5519 9.41733 10.5313 9.94876C10.5213 10.1884 10.4189 10.4149 10.2455 10.5806C10.072 10.7464 9.84113 10.8384 9.60125 10.8374Z" fill="#007647"/>
</g>
<g style="mix-blend-mode:multiply">
<path d="M8.08668 14.398C7.95939 14.4027 7.83243 14.3822 7.71311 14.3376C7.59378 14.2931 7.48445 14.2253 7.39142 14.1384C7.29838 14.0514 7.22348 13.9468 7.17103 13.8307C7.11859 13.7147 7.08962 13.5894 7.08582 13.462C7.08823 13.3364 7.11635 13.2125 7.16843 13.0981C7.22052 12.9837 7.29547 12.8811 7.38868 12.7968C7.48188 12.7124 7.59137 12.648 7.7104 12.6076C7.82942 12.5671 7.95547 12.5515 8.08077 12.5616C8.20851 12.5592 8.33543 12.5824 8.4541 12.6297C8.57276 12.6771 8.68077 12.7477 8.7718 12.8373C8.86282 12.927 8.93503 13.0339 8.98418 13.1518C9.03332 13.2697 9.05843 13.3963 9.05801 13.524C9.05695 13.6469 9.03033 13.7683 8.97984 13.8803C8.92934 13.9923 8.85609 14.0926 8.76473 14.1748C8.67337 14.257 8.56591 14.3193 8.44918 14.3577C8.33244 14.3961 8.20899 14.4098 8.08668 14.398Z" fill="#007647"/>
</g>
<g style="mix-blend-mode:multiply">
<path d="M10.9652 5.13894C11.0949 5.13006 11.2251 5.14787 11.3476 5.19128C11.4702 5.23469 11.5825 5.30277 11.6777 5.39132C11.7729 5.47987 11.8489 5.587 11.901 5.70609C11.9532 5.82518 11.9803 5.9537 11.9808 6.08371C11.9811 6.20543 11.9563 6.3259 11.908 6.43761C11.8597 6.54933 11.7888 6.64987 11.6999 6.73299C11.611 6.8161 11.5059 6.87999 11.3911 6.92067C11.2764 6.96135 11.1545 6.97795 11.0331 6.96942C10.9036 6.97617 10.7741 6.95691 10.6521 6.91279C10.5302 6.86866 10.4183 6.80057 10.3231 6.71251C10.2279 6.62446 10.1513 6.51823 10.0978 6.40009C10.0443 6.28195 10.015 6.1543 10.0116 6.02466C10.0146 5.90342 10.0418 5.78402 10.0917 5.67346C10.1415 5.5629 10.213 5.46343 10.3018 5.3809C10.3907 5.29837 10.4951 5.23445 10.6091 5.1929C10.723 5.15134 10.8441 5.133 10.9652 5.13894Z" fill="#007647"/>
</g>
</g>
<defs>
<clipPath id="clip0_1663_5211">
<rect width="23.9587" height="24" fill="white"/>
</clipPath>
</defs>
</svg>
