<svg width="22" height="24" viewBox="0 0 22 24" fill="none" xmlns="http://www.w3.org/2000/svg">
<g clip-path="url(#clip0_1663_5222)">
<path d="M14.9893 24.013C14.453 23.9202 13.9241 23.7885 13.4069 23.6189C11.372 22.7816 10.1191 21.2793 9.79584 19.1027C9.58323 17.7612 9.86028 16.388 10.5764 15.2339C11.2925 14.0797 12.3999 13.2217 13.6963 12.8164C15.0462 12.3658 16.5178 12.4517 17.8061 13.0566C17.8306 13.0717 17.8542 13.0881 17.8769 13.1058L17.2612 14.1002C16.744 13.9986 16.2545 13.8601 15.7558 13.8139C14.889 13.7546 14.0236 13.9492 13.2656 14.374C12.5077 14.7987 11.8899 15.4352 11.4879 16.2055C11.0859 16.9758 10.9172 17.8465 11.0023 18.7112C11.0874 19.5759 11.4226 20.3971 11.9671 21.0742C12.5115 21.7514 13.2415 22.2552 14.0677 22.5241C14.8939 22.7929 15.7806 22.8151 16.6193 22.588C17.4579 22.3609 18.2122 21.8942 18.7899 21.2452C19.3675 20.5961 19.7435 19.7928 19.8718 18.9334C19.9539 18.422 19.9382 17.8997 19.8256 17.3942C19.8063 17.3197 19.8037 17.2419 19.8181 17.1663C19.8324 17.0907 19.8634 17.0192 19.9087 16.957C20.1488 16.5938 20.3705 16.2213 20.6198 15.8241C20.9922 16.5915 21.1839 17.434 21.1801 18.2869C21.1704 19.6076 20.7059 20.8846 19.8648 21.9029C19.0237 22.9211 17.8574 23.6185 16.5624 23.8775C16.3469 23.9206 16.1314 23.9514 15.919 23.9883L14.9893 24.013Z" fill="#404041"/>
<path d="M9.85126 21.7031H2.13346C1.66417 21.7288 1.20079 21.5887 0.824325 21.3073C0.44786 21.0259 0.182256 20.6212 0.0739412 20.1639C0.0215265 19.9525 -0.00330779 19.7352 5.71359e-05 19.5174C5.71359e-05 14.641 5.71359e-05 9.76572 5.71359e-05 4.89142C5.71359e-05 3.8201 0.544952 3.04432 1.50544 2.78265C1.70734 2.73546 1.91382 2.71068 2.12114 2.70876C2.2997 2.70876 2.47825 2.70876 2.69682 2.70876C2.69682 2.49635 2.69682 2.29932 2.69682 2.09306C2.68073 1.63526 2.82197 1.18576 3.097 0.819422C3.37203 0.453086 3.76426 0.192027 4.20837 0.0797233C4.39577 0.0271686 4.58942 0.000243382 4.78405 -0.00031779C8.20734 -0.00031779 11.6296 -0.00031779 15.0509 -0.00031779C15.5088 -0.0188794 15.9591 0.121031 16.3258 0.395821C16.6926 0.670611 16.9534 1.06347 17.0642 1.50815C17.116 1.69668 17.1419 1.89139 17.1412 2.08691C17.1412 5.32754 17.1412 8.56921 17.1412 11.8119C17.1412 11.8519 17.1412 11.8889 17.1412 11.9289L15.5342 11.698V2.25622C15.5342 1.71441 15.4264 1.60358 14.8938 1.60358H4.95337C4.42079 1.60358 4.30996 1.71441 4.30996 2.25315V2.70569H4.61781C7.16373 2.70569 9.71273 2.70569 12.2587 2.70569C12.595 2.68613 12.9309 2.74911 13.2373 2.88916C13.5437 3.02921 13.8112 3.24206 14.0165 3.50917C14.2388 3.79457 14.3755 4.13728 14.4105 4.49737C14.4105 4.63591 14.4105 4.77752 14.4105 4.91913V11.7811L12.8066 12.246V4.92528C12.8066 4.44504 12.6866 4.30958 12.2156 4.30958H2.20734C1.73325 4.30958 1.61627 4.42657 1.61627 4.90374V19.5081C1.61627 19.9761 1.73941 20.0992 2.23197 20.0992C4.46696 20.0992 6.69888 20.0992 8.93387 20.0992C9.01243 20.0875 9.09249 20.1065 9.15732 20.1524C9.22215 20.1983 9.26673 20.2675 9.28174 20.3455C9.43874 20.795 9.64808 21.2413 9.85126 21.7031Z" fill="#404041"/>
<path d="M15.2571 18.8919L15.4049 18.661C16.7163 16.5553 18.0268 14.4496 19.3362 12.3439C19.4147 12.1905 19.5275 12.0571 19.6657 11.9541C19.804 11.8511 19.964 11.7812 20.1335 11.7498C20.3167 11.72 20.5045 11.7398 20.6774 11.8071C20.8504 11.8744 21.0022 11.9867 21.1172 12.1324C21.2321 12.2782 21.306 12.452 21.3311 12.6358C21.3563 12.8197 21.3318 13.007 21.2602 13.1782C21.2265 13.2579 21.1853 13.3342 21.1371 13.406C19.5075 16.0227 17.879 18.6343 16.2515 21.2408C15.8698 21.8565 15.2017 22.0073 14.6753 21.601C14.5655 21.5137 14.4699 21.4099 14.3921 21.2931C13.6553 20.2567 12.9247 19.2151 12.2002 18.1684C11.6984 17.4542 12.077 16.5522 12.9298 16.4814C13.1255 16.4632 13.3224 16.5007 13.4978 16.5894C13.6731 16.6782 13.8199 16.8147 13.9211 16.9832C14.3028 17.5466 14.6999 18.11 15.0847 18.6702C15.1432 18.741 15.1956 18.8057 15.2571 18.8919Z" fill="#007647"/>
<g style="mix-blend-mode:multiply">
<path d="M7.22223 11.7217C6.29868 11.7217 5.3936 11.7217 4.47929 11.7217C4.3209 11.727 4.16487 11.6823 4.03335 11.5938C3.90182 11.5054 3.8015 11.3778 3.7466 11.2292C3.67796 11.0908 3.65646 10.9338 3.68536 10.782C3.71426 10.6303 3.79198 10.4922 3.90668 10.3887C4.0657 10.2432 4.2678 10.1535 4.48236 10.1332C6.30792 10.1147 8.13655 10.1332 9.96518 10.1332C10.1766 10.1332 10.3794 10.2172 10.529 10.3667C10.6785 10.5163 10.7625 10.7191 10.7625 10.9305C10.7625 11.142 10.6785 11.3448 10.529 11.4943C10.3794 11.6439 10.1766 11.7279 9.96518 11.7279C9.04778 11.7279 8.13347 11.7217 7.22223 11.7217Z" fill="#F49221"/>
</g>
<g style="mix-blend-mode:multiply">
<path d="M10.667 13.7893C10.4023 14.1618 10.1591 14.5065 9.8851 14.8544C9.86136 14.8821 9.83216 14.9046 9.79931 14.9205C9.76647 14.9364 9.73069 14.9454 9.69423 14.9468C7.96103 14.9468 6.22784 14.9468 4.49464 14.9468C4.38953 14.9441 4.28596 14.9208 4.18986 14.8782C4.09375 14.8355 4.00699 14.7744 3.93452 14.6982C3.86206 14.622 3.80531 14.5323 3.76751 14.4342C3.72971 14.3361 3.71161 14.2315 3.71424 14.1264C3.71687 14.0212 3.74017 13.9177 3.78282 13.8216C3.82548 13.7255 3.88664 13.6387 3.96282 13.5662C4.03901 13.4938 4.12872 13.437 4.22683 13.3992C4.32495 13.3614 4.42955 13.3433 4.53466 13.346C6.07391 13.346 7.61316 13.346 9.17088 13.346C9.43564 13.346 9.70346 13.346 9.96822 13.346C10.1148 13.3456 10.2585 13.3872 10.3823 13.4657C10.5061 13.5442 10.6049 13.6565 10.667 13.7893Z" fill="#F49221"/>
</g>
<g style="mix-blend-mode:multiply">
<path d="M6.59725 8.51199C5.9169 8.51199 5.23655 8.51199 4.5562 8.51199C4.4463 8.51879 4.33616 8.50301 4.23259 8.46563C4.12901 8.42825 4.03419 8.37005 3.95396 8.29463C3.87373 8.21921 3.80979 8.12816 3.76608 8.02709C3.72238 7.92602 3.69983 7.81707 3.69983 7.70696C3.69983 7.59684 3.72238 7.48789 3.76608 7.38682C3.80979 7.28575 3.87373 7.1947 3.95396 7.11928C4.03419 7.04386 4.12901 6.98567 4.23259 6.94829C4.33616 6.91091 4.4463 6.89513 4.5562 6.90193C5.91485 6.90193 7.27349 6.90193 8.63214 6.90193C8.73766 6.90092 8.84234 6.9207 8.94021 6.96015C9.03808 6.99959 9.12722 7.05793 9.20255 7.13182C9.27787 7.20572 9.3379 7.29373 9.37922 7.39083C9.42053 7.48792 9.44231 7.59221 9.44332 7.69772C9.44433 7.80324 9.42455 7.90792 9.38511 8.00579C9.34566 8.10366 9.28733 8.1928 9.21343 8.26813C9.13953 8.34345 9.05152 8.40349 8.95443 8.4448C8.85733 8.48611 8.75305 8.5079 8.64753 8.50891C7.96718 8.5243 7.28991 8.50891 6.60956 8.50891L6.59725 8.51199Z" fill="#F49221"/>
</g>
<g style="mix-blend-mode:multiply">
<path d="M9.10009 16.5527C9.0416 17.0668 8.98003 17.5532 8.93077 18.0397C8.9123 18.2028 8.7984 18.1628 8.70296 18.1628H5.54134C5.15961 18.1628 4.7748 18.1628 4.39306 18.1628C4.29267 18.1547 4.19488 18.1267 4.10533 18.0806C4.01578 18.0345 3.93623 17.9712 3.87127 17.8942C3.80632 17.8172 3.75723 17.7282 3.72685 17.6321C3.69647 17.5361 3.68538 17.435 3.69424 17.3347C3.69689 17.1661 3.75414 17.003 3.85738 16.8698C3.96063 16.7366 4.10431 16.6404 4.26684 16.5958C4.3962 16.5673 4.52844 16.5539 4.66089 16.5558H9.10009V16.5527Z" fill="#F49221"/>
</g>
</g>
<defs>
<clipPath id="clip0_1663_5222">
<rect width="21.3433" height="24" fill="white"/>
</clipPath>
</defs>
</svg>
